<svg width="68" height="72" viewBox="0 0 68 72" fill="none" xmlns="http://www.w3.org/2000/svg">
<path id="Arrow 2" d="M38.5 5C38.5 2.51472 36.4853 0.5 34 0.5C31.5147 0.5 29.5 2.51472 29.5 5L38.5 5ZM30.818 70.182C32.5754 71.9393 35.4246 71.9393 37.182 70.182L65.8198 41.5442C67.5772 39.7868 67.5772 36.9376 65.8198 35.1802C64.0624 33.4228 61.2132 33.4228 59.4558 35.1802L34 60.636L8.54416 35.1802C6.7868 33.4228 3.93755 33.4228 2.1802 35.1802C0.422838 36.9376 0.422838 39.7868 2.1802 41.5442L30.818 70.182ZM29.5 5L29.5 67L38.5 67L38.5 5L29.5 5Z" fill="#FE1038"/>
</svg>
