<svg width="37" height="24" viewBox="0 0 37 24" fill="none" xmlns="http://www.w3.org/2000/svg">
<path d="M11.4046 0.751831C12.46 0.751831 13.4141 0.839591 14.2883 1.03311C15.1502 1.22663 15.8939 1.52592 16.5149 1.94784C17.1304 2.36976 17.6108 2.92107 17.9562 3.6299C18.2904 4.3331 18.4659 5.2062 18.4659 6.22556C18.4659 7.33268 18.2082 8.26541 17.7042 9.01474C17.1945 9.7652 16.4497 10.3626 15.4483 10.8431C16.8075 11.2357 17.8156 11.9209 18.4839 12.8998C19.1578 13.8899 19.4796 15.0735 19.4796 16.4394C19.4796 17.5646 19.2861 18.5254 18.8642 19.3344C18.4479 20.1602 17.8617 20.8342 17.1236 21.3618C16.4024 21.8839 15.5473 22.2586 14.6213 22.5106C13.7066 22.757 12.7401 22.892 11.7557 22.892H0.996094V0.764207H11.4035L11.4046 0.751831ZM26.4126 18.9946C27.0686 19.6393 28.0182 19.9611 29.2547 19.9611C30.139 19.9611 30.9019 19.7383 31.5455 19.2871C32.1845 18.8539 32.5648 18.3724 32.7178 17.8807H36.5973C35.9942 19.7968 35.0266 21.1796 33.7496 22.0065C32.4726 22.8448 30.9255 23.2487 29.1321 23.2487C27.8719 23.2487 26.7524 23.0552 25.7218 22.6512C24.7137 22.2473 23.8586 21.6724 23.143 20.9399C22.4455 20.2075 21.9065 19.322 21.5251 18.2858C21.1437 17.2495 20.9625 16.112 20.9625 14.8811C20.9625 13.6739 21.1673 12.5724 21.5724 11.535C21.9763 10.4864 22.5332 9.61331 23.2488 8.8516C23.9925 8.08426 24.8431 7.50932 25.8568 7.05815C26.8649 6.60697 27.9552 6.40783 29.1849 6.40783C30.5508 6.40783 31.7221 6.65423 32.7538 7.19316C33.7619 7.70285 34.5878 8.42405 35.2449 9.29152C35.9076 10.1702 36.37 11.184 36.6569 12.3271C36.9438 13.4522 37.0316 14.6359 36.973 15.896H25.4349C25.4349 17.1561 25.8568 18.3454 26.5015 18.9901L26.3789 19.0373L26.4126 18.9946ZM11.0468 19.07C11.5216 19.07 11.9784 19.0227 12.406 18.9293C12.8391 18.8416 13.2262 18.6829 13.5491 18.4782C13.8653 18.279 14.1353 17.9853 14.3344 17.6051C14.528 17.2473 14.6157 16.75 14.6157 16.1638C14.6157 15.0387 14.2872 14.2297 13.6549 13.738C13.0102 13.2576 12.1719 13.0168 11.1233 13.0168H5.8555V19.0936H11.0479V19.0463L11.0468 19.07ZM31.4633 10.5967C30.93 10.0161 30.0513 9.70557 28.9723 9.70557C28.2747 9.70557 27.6953 9.81695 27.2261 10.0634C26.7749 10.2861 26.4003 10.591 26.1122 10.9477C25.8309 11.3055 25.6374 11.6689 25.526 12.0728C25.4147 12.4655 25.3449 12.8233 25.3269 13.1394H32.4703C32.3645 12.0143 31.9719 11.1885 31.4509 10.6023V10.6203L31.4633 10.5967ZM10.7779 9.67069C11.6398 9.67069 12.3542 9.47154 12.9168 9.05524C13.4793 8.65132 13.7494 7.97062 13.7494 7.04577C13.7494 6.53047 13.6436 6.10854 13.4793 5.78001C13.2802 5.44585 13.0282 5.19382 12.7289 5.01267C12.4127 4.82478 12.0493 4.69651 11.6443 4.62563C11.2403 4.5435 10.806 4.51424 10.3841 4.51424H5.84313V9.67069H10.7779ZM24.4257 2.23474H33.3794V4.41411H24.4257V2.21674V2.23474Z" fill="black"/>
</svg>
