<svg width="42" height="42" viewBox="0 0 42 42" fill="none" xmlns="http://www.w3.org/2000/svg">
<path d="M21.0827 0.654614C9.64837 0.654614 0.384766 9.92598 0.384766 21.3525C0.384766 30.5023 6.31472 38.2575 14.5331 40.9935C15.5719 41.1889 15.947 40.5485 15.947 39.9949C15.947 39.5033 15.9354 38.2032 15.9276 36.4775C10.1671 37.7246 8.9537 33.6949 8.9537 33.6949C8.01065 31.3095 6.64976 30.6692 6.64976 30.6692C4.7766 29.3898 6.79853 29.4169 6.79853 29.4169C8.8735 29.5579 9.96531 31.5449 9.96531 31.5449C11.8113 34.7117 14.8086 33.7958 15.9949 33.2629C16.176 31.9292 16.7154 31.012 17.3027 30.501C12.7078 29.9823 7.87611 28.2035 7.87611 20.2723C7.87611 18.0072 8.67816 16.1625 10.0041 14.7137C9.77515 14.1949 9.07401 12.0863 10.1865 9.23519C10.1865 9.23519 11.9187 8.68281 15.8784 11.358C17.5356 10.8988 19.2949 10.6698 21.0529 10.6582C22.8122 10.6698 24.5703 10.9001 26.2274 11.358C30.1639 8.68281 31.8947 9.23519 31.8947 9.23519C33.006 12.0863 32.3048 14.1936 32.103 14.7137C33.416 16.1625 34.2181 18.0085 34.2181 20.2723C34.2181 28.2216 29.3799 29.9745 24.7798 30.4803C25.4991 31.0999 26.1731 32.3742 26.1731 34.3081C26.1731 37.0765 26.1472 39.3067 26.1472 39.9806C26.1472 40.5188 26.5094 41.1656 27.5753 40.9573C35.8545 38.2498 41.778 30.4881 41.778 21.3512C41.778 9.92469 32.5144 0.65332 21.0801 0.65332L21.0827 0.654614Z" fill="black"/>
</svg>
