<svg width="32" height="37" viewBox="0 0 32 37" fill="none" xmlns="http://www.w3.org/2000/svg">
<path d="M17.0343 0.483253C18.9972 0.452881 20.9488 0.470879 22.8983 0.452881C23.0164 2.74875 23.842 5.08737 25.5226 6.71057C27.1998 8.37426 29.5721 9.1358 31.8804 9.39339V15.4329C29.7172 15.362 27.544 14.912 25.5811 13.9806C24.7262 13.5937 23.9298 13.0954 23.1502 12.5858C23.1401 16.9683 23.1682 21.3452 23.1221 25.7097C23.0051 27.8065 22.3133 29.8931 21.0939 31.6209C19.1322 34.4972 15.7272 36.3724 12.2299 36.4309C10.0848 36.5535 7.9419 35.9686 6.11398 34.891C3.08469 33.1046 0.95305 29.8346 0.642584 26.325C0.606588 25.5747 0.594215 24.8256 0.624586 24.0933C0.894557 21.2395 2.30628 18.5094 4.49753 16.6522C6.98126 14.4891 10.4605 13.4587 13.7181 14.0684C13.7485 16.29 13.6596 18.5094 13.6596 20.731C12.1714 20.2496 10.4324 20.3846 9.13202 21.2878C8.18263 21.9031 7.46158 22.8458 7.08587 23.9122C6.77541 24.6726 6.86427 25.5174 6.88227 26.325C7.23886 28.7863 9.60559 30.8549 12.1321 30.631C13.807 30.613 15.4122 29.6412 16.2851 28.2182C16.5674 27.7199 16.8835 27.2103 16.9004 26.6242C17.0478 23.9414 16.9893 21.2698 17.0073 18.587C17.0196 12.5408 16.9893 6.51146 17.0354 0.484377L17.0343 0.483253Z" fill="black"/>
</svg>
