<svg width="47" height="33" viewBox="0 0 47 33" fill="none" xmlns="http://www.w3.org/2000/svg">
<path d="M45.8111 5.24911C45.2605 3.29427 43.736 1.76112 41.7725 1.21916C38.157 0.25261 23.6225 0.25261 23.6225 0.25261C23.6225 0.25261 9.11557 0.229424 5.46238 1.21916C3.50899 1.76257 1.97729 3.29427 1.43243 5.24911C0.747008 8.95446 0.40647 12.7047 0.42241 16.4724C0.415164 20.2154 0.754254 23.9599 1.43243 27.6421C1.97729 29.5969 3.50899 31.1301 5.46238 31.6807C9.07789 32.6473 23.6225 32.6473 23.6225 32.6473C23.6225 32.6473 38.1208 32.6473 41.7725 31.6807C43.736 31.1301 45.2605 29.5984 45.8111 27.6421C46.4763 23.9599 46.8009 20.2154 46.7777 16.4724C46.8009 12.7047 46.4835 8.95446 45.8111 5.24911ZM18.9796 23.4092V9.50512L31.0781 16.4724L18.9796 23.4092Z" fill="black"/>
</svg>
